0
SECTION
2
HEADER
9
$INSUNITS
70
4
9
$ACADVER
1
AC1014
9
$HANDSEED
5
FFFF
0
ENDSEC
0
SECTION
2
TABLES
0
TABLE
2
VPORT
5
8
100
AcDbSymbolTable
0
ENDTAB
0
TABLE
2
LTYPE
5
5
100
AcDbSymbolTable
0
LTYPE
5
14
100
AcDbSymbolTableRecord
100
AcDbLinetypeTableRecord
2
BYBLOCK
70
0
0
LTYPE
5
15
100
AcDbSymbolTableRecord
100
AcDbLinetypeTableRecord
2
BYLAYER
70
0
0
ENDTAB
0
TABLE
2
LAYER
5
2
100
AcDbSymbolTable
70
2
0
LAYER
5
50
100
AcDbSymbolTableRecord
100
AcDbLayerTableRecord
2
0
70
0
6
CONTINUOUS
0
ENDTAB
0
TABLE
2
STYLE
5
3
100
AcDbSymbolTable
70
1
0
STYLE
5
11
100
AcDbSymbolTableRecord
100
AcDbTextStyleTableRecord
2
STANDARD
70
0
0
ENDTAB
0
TABLE
2
VIEW
5
6
100
AcDbSymbolTable
70
0
0
ENDTAB
0
TABLE
2
UCS
5
7
100
AcDbSymbolTable
70
0
0
ENDTAB
0
TABLE
2
APPID
5
9
100
AcDbSymbolTable
70
2
0
APPID
5
12
100
AcDbSymbolTableRecord
100
AcDbRegAppTableRecord
2
ACAD
70
0
0
ENDTAB
0
TABLE
2
DIMSTYLE
5
A
100
AcDbSymbolTable
70
1
0
ENDTAB
0
TABLE
2
BLOCK_RECORD
5
1
100
AcDbSymbolTable
70
1
0
BLOCK_RECORD
5
1F
100
AcDbSymbolTableRecord
100
AcDbBlockTableRecord
2
*MODEL_SPACE
0
BLOCK_RECORD
5
1B
100
AcDbSymbolTableRecord
100
AcDbBlockTableRecord
2
*PAPER_SPACE
0
ENDTAB
0
ENDSEC
0
SECTION
2
BLOCKS
0
BLOCK
5
20
100
AcDbEntity
100
AcDbBlockBegin
2
*MODEL_SPACE
0
ENDBLK
5
21
100
AcDbEntity
100
AcDbBlockEnd
0
BLOCK
5
1C
100
AcDbEntity
100
AcDbBlockBegin
2
*PAPER_SPACE
0
ENDBLK
5
1D
100
AcDbEntity
100
AcDbBlockEnd
0
ENDSEC
0
SECTION
2
ENTITIES
0
LWPOLYLINE
5
100
100
AcDbEntity
8
0
100
AcDbPolyline
90
12
70
1
43
0.0
10
221.53931829132117
20
-6.5139266297775151
42
0.10417112563346165
10
220.68972734595658
20
-2.4803160718721387
10
213.16937543318329
20
14.579907082745136
42
0.29721775996045818
10
204.01896637854782
20
20.546296524839782
10
19.995822693515457
20
20.546296561004866
42
0.29721775198672579
10
10.845413757089325
20
14.579907350907693
10
3.3250613443477728
20
-2.4803155833174979
42
0.10417113303948618
10
2.4754702807738989
20
-6.5139264093854852
10
2.4754701984691518
20
-228.72712020656994
42
0.41421356237309503
10
54.226382782426157
20
-280.47803279052698
10
169.78840562505937
20
-280.47803279052692
42
0.4142135623730952
10
221.53931820901636
20
-228.72712020656991
0
LWPOLYLINE
5
101
100
AcDbEntity
8
0
100
AcDbPolyline
90
4
70
1
43
0.0
10
19.717511262360613
20
-117.28414147421429
10
19.717511262360613
20
-7.9076473832309198
10
204.29727714512495
20
-7.9076473832309198
10
204.29727714512495
20
-117.28414147421429
0
LWPOLYLINE
5
102
100
AcDbEntity
8
0
100
AcDbPolyline
90
6
70
1
43
0.0
10
29.175301213022205
20
-127.28414147421429
10
176.55732061294367
20
-127.28414147421432
42
-0.99999999999999989
10
176.55732061294367
20
-191.2729962877624
10
29.175301213022209
20
-191.2729962877624
42
-0.41421356237309503
10
15.27268083810119
20
-177.37037591284135
10
15.27268083810117
20
-141.18676184913534
42
-0.41421356237309503
0
LWPOLYLINE
5
103
100
AcDbEntity
8
0
100
AcDbPolyline
90
4
70
1
43
0.0
10
127.79350960841538
20
-218.29485482864135
10
127.79350960841539
20
-249.69954318162397
42
-0.99999999999999989
10
95.495889352586602
20
-249.69954318162397
10
95.495889352586616
20
-218.29485482864135
42
-0.99999999999999989
0
CIRCLE
5
104
100
AcDbEntity
8
0
100
AcDbCircle
10
212.01710620637959
20
-62.848919981744373
30
8.5931262105987116e-13
40
1.4999999999999858
210
6.1013460638187614e-31
220
0
230
1
0
CIRCLE
5
105
100
AcDbEntity
8
0
100
AcDbCircle
10
11.997682201105988
20
-117.61240458289456
30
8.2822637637036678e-13
40
1.4999999999999969
210
6.1013460638187614e-31
220
0
230
1
0
CIRCLE
5
106
100
AcDbEntity
8
0
100
AcDbCircle
10
212.01710620637957
20
-117.61240458289458
30
8.2822637637036678e-13
40
1.4999999999999858
210
6.1013460638187614e-31
220
0
230
1
0
CIRCLE
5
107
100
AcDbEntity
8
0
100
AcDbCircle
10
11.997682201105988
20
-62.848919981744359
30
8.5931262105987116e-13
40
1.4999999999999991
210
6.1013460638187614e-31
220
0
230
1
0
CIRCLE
5
108
100
AcDbEntity
8
0
100
AcDbCircle
10
-14.117572891075355
20
-199.15846791234446
30
-8.8317178509561849e-13
40
1.4999999999999973
210
-6.1013460638187614e-31
220
6.9388939039072268e-15
230
-1
0
CIRCLE
5
109
100
AcDbEntity
8
0
100
AcDbCircle
10
-212.01710620637959
20
-8.0854353805941521
30
-8.8322013161858229e-13
40
1.5000000000000009
210
-6.1013460638187614e-31
220
6.9388939039072268e-15
230
-1
0
CIRCLE
5
110
100
AcDbEntity
8
0
100
AcDbCircle
10
-84.556502212644276
20
-199.15846791234458
30
-8.8317178509561919e-13
40
1.4999999999999973
210
-6.1013460638187614e-31
220
6.9388939039072268e-15
230
-1
0
CIRCLE
5
111
100
AcDbEntity
8
0
100
AcDbCircle
10
-84.556502212644276
20
-268.83593009792088
30
-8.8315417547058531e-13
40
1.500000000000024
210
-6.1013460638187614e-31
220
6.9388939039072268e-15
230
-1
0
CIRCLE
5
112
100
AcDbEntity
8
0
100
AcDbCircle
10
-138.73289674835758
20
-268.83593009792088
30
-8.8315417547058531e-13
40
1.500000000000024
210
-6.1013460638187614e-31
220
6.9388939039072268e-15
230
-1
0
CIRCLE
5
113
100
AcDbEntity
8
0
100
AcDbCircle
10
-138.73289674835752
20
-199.15846791234458
30
-8.8317178509561919e-13
40
1.4999999999999973
210
-6.1013460638187614e-31
220
6.9388939039072268e-15
230
-1
0
CIRCLE
5
114
100
AcDbEntity
8
0
100
AcDbCircle
10
-11.997682201105988
20
-8.0854353805941521
30
-8.8322013161858219e-13
40
1.4999999999999989
210
-6.1013460638187614e-31
220
6.9388939039072268e-15
230
-1
0
CIRCLE
5
115
100
AcDbEntity
8
0
100
AcDbCircle
10
-209.17182606992662
20
-199.15846791234458
30
-8.831717850956195e-13
40
1.4999999999999973
210
-6.1013460638187614e-31
220
6.9388939039072268e-15
230
-1
0
CIRCLE
5
116
100
AcDbEntity
8
0
100
AcDbCircle
10
-49.337037551859837
20
-233.9971990051327
30
-8.8316298028310205e-13
40
37.897254137573348
210
-6.1013460638187614e-31
220
6.9388939039072268e-15
230
-1
0
CIRCLE
5
117
100
AcDbEntity
8
0
100
AcDbCircle
10
-173.9523614091421
20
-233.99719900513273
30
-8.8316298028310235e-13
40
37.897254137573427
210
-6.1013460638187614e-31
220
6.9388939039072268e-15
230
-1
0
ENDSEC
0
SECTION
2
OBJECTS
0
DICTIONARY
5
C
100
AcDbDictionary
3
ACAD_GROUP
350
D
3
ACAD_MLINESTYLE
350
17
0
DICTIONARY
5
D
100
AcDbDictionary
0
DICTIONARY
5
1A
330
C
100
AcDbDictionary
0
DICTIONARY
5
17
100
AcDbDictionary
0
ENDSEC
0
EOF
